# xmcd CD database file
#
# Track frame offsets:
#	150
#	12321
#	22146
#	40711
#	53905
#	67226
#	79116
#	93169
#	110076
#	126569
#	140778
#	161822
#	172883
#	185808
#	198445
#	210598
#	220332
#	230630
#	245550
#	257222
#	273027
#	293764
#	304617
#	321464
#
# Disc length: 4474 seconds
#
# Revision: 0
# Processed by: cddbd v1.5.2PL0 Copyright (c) Steve Scherf et al.
# Submitted via: ACXtractor (MTCDDB.DLL V2003.12.21)
#
DISCID=76117818
DTITLE=Jean Stafford - Flowers for Mama 
DYEAR=1975
DGENRE=Country
TTITLE0=Flowers For Mama
TTITLE1=Lonely
TTITLE2=What Kind of Girl do You Think I Am
TTITLE3=I Hold Your Name
TTITLE4=I Wonder Where You Are Tonight
TTITLE5=Mama and Papa
TTITLE6=I'll Meet You in Church on Sunday Morning
TTITLE7=Cold Cold Heart
TTITLE8=Don't Make Me Go To School
TTITLE9=There'll Be No Teardrops Tonight
TTITLE10=Now I'm Going to Make it Alone
TTITLE11=Open Up Your Heart
TTITLE12=Happy Birthday To Me
TTITLE13=I Miss Holding You
TTITLE14=Did I Turn Down A Better Deal
TTITLE15=Alone And Waiting
TTITLE16=Nothing Left But Heartaches
TTITLE17=Don't Forget Me Little Darling
TTITLE18=Don't Let Me Cross Over
TTITLE19=Jealous Heart
TTITLE20=Little Rosewood Casket
TTITLE21=Second Fiddle
TTITLE22=Philadelphia Lawyer
TTITLE23=I've Enjoyed As Much Of This As I Can Stand
EXTD=ID3G:   2 YEAR: 1975
EXTT0=
EXTT1=
EXTT2=
EXTT3=
EXTT4=
EXTT5=
EXTT6=
EXTT7=
EXTT8=
EXTT9=
EXTT10=
EXTT11=
EXTT12=
EXTT13=
EXTT14=
EXTT15=
EXTT16=
EXTT17=
EXTT18=
EXTT19=
EXTT20=
EXTT21=
EXTT22=
EXTT23=
PLAYORDER=
